<svg width="40" height="40" viewBox="0 0 40 40" fill="none" xmlns="http://www.w3.org/2000/svg">
<path d="M31.8251 4.89445C28.6665 1.7382 24.4669 0 20 0C15.533 0 11.3334 1.7382 8.17483 4.89445C5.01623 8.0507 3.2767 12.2471 3.2767 16.7107C3.2767 19.834 4.1428 22.9962 5.85092 26.1091C7.19436 28.5575 9.06006 30.9812 11.3962 33.3128C15.3448 37.2538 19.2433 39.5566 19.4073 39.6527L20 40L20.5927 39.6527C20.7568 39.5566 24.6553 37.2537 28.6039 33.3128C30.94 30.9812 32.8057 28.5575 34.1491 26.1091C35.8573 22.9961 36.7233 19.834 36.7233 16.7107C36.7233 12.247 34.9837 8.05062 31.8251 4.89445ZM26.9855 31.6179C24.1196 34.4862 21.2163 36.4784 20 37.2622C18.7837 36.4784 15.8804 34.4862 13.0144 31.6179C9.64131 28.2419 5.62037 22.9151 5.62037 16.7107C5.62037 8.78773 12.0711 2.34195 20 2.34195C27.9289 2.34195 34.3796 8.78773 34.3796 16.7106C34.3796 22.9151 30.3587 28.2418 26.9855 31.6179Z" fill="black"/>
<path d="M20 9.64624C16.2353 9.64624 13.1726 12.7067 13.1726 16.4685C13.1726 20.2303 16.2354 23.2908 20 23.2908C23.7646 23.2908 26.8274 20.2303 26.8274 16.4685C26.8274 12.7067 23.7647 9.64624 20 9.64624ZM20 20.9487C17.5276 20.9487 15.5163 18.9389 15.5163 16.4684C15.5163 13.998 17.5277 11.9881 20 11.9881C22.4723 11.9881 24.4837 13.998 24.4837 16.4684C24.4837 18.9389 22.4723 20.9487 20 20.9487Z" fill="black"/>
</svg>
